<svg id="Layer_1" data-name="Layer 1" xmlns="http://www.w3.org/2000/svg" viewBox="0 0 746 707"><title>conseil</title><path d="M28,695c1.58.06,1.25-1.16,1.35-2.06,2.33-20.66,4.59-41.31,7-62,2.06-17.84,4.43-35.64,6.36-53.49,1.08-9.93,2-19.82,6-29.15,8.22-19.59,21.67-34,41.6-41.85q67.45-26.52,135-52.81c1.53-.6,3-1.29,4.61-1.75,3.13-.91,5.06.19,5.92,3.45q13.72,52.29,27.54,104.56c3.64,13.76,7.41,27.48,11.1,41.23.25.94.09,2.19,1.37,2.3s1.29-1.29,1.67-2.12q12.29-27.47,24.56-54.93c2.57-5.74,5.44-11.35,7.75-17.19,1-2.57,2.42-3.11,4.85-3.09,13.67.07,27.34.15,41,0,3.14-.05,4.4,1.37,5.42,3.89q13,32.25,26.16,64.45c1.32,3.24,2.29,6.73,4.94,10,5.78-21.73,11.41-42.86,17-64q10-37.9,20-75.82c.8-3,1.48-6.1,2.33-9.13,1.34-4.72,3.39-5.7,8-3.9,47.35,18.45,94.94,36.32,142,55.58,24,9.85,39.13,28.7,43.71,54.66,4.1,23.26,5.77,46.86,8.46,70.31,2.55,22.3,5,44.62,8,66.85,3.66,26.5-11.66,48.7-37.84,53.84-.77.15-1.72,0-1.86,1.18H67c-.11-.28-.17-.78-.34-.81-12.86-2.77-23.4-8.88-30.82-20.15C32,727.13,30,720.58,28,714Z" transform="translate(-28 -47)"/><path d="M362,47c4.46,2.35,9.55,2.42,14.29,3.87,11.08,3.38,20.38,9.23,29.27,16.45,11.08,9,18.65,20.54,25.31,32.79,1.5,2.75,4,3,6.09,4.28,10.07,6.3,15.34,16,19,26.73,2.63,7.67,3.15,15.77,4.49,23.71,1.67,9.95,1.42,19.82.88,29.59-.66,11.77-.8,23.71-3.92,35.25-2.38,8.81-.22,17.07,2.78,25.35s3.11,16.79,1.66,25.78c-2.19,13.53-9.16,23.87-18,33.53-2.45,2.69-5.25,4.12-4.9,9.57.4,6.18-2,13.06-4.52,19.4-5.7,14.38-10.35,29.16-16.72,43.29a8,8,0,0,0-.19,4c1.2,11.44-1.32,22.74-1.54,34.14-.08,4.33-3.45,9.29-8,12.58-8.59,6.22-16.92,12.84-25,19.69-9.76,8.24-20.21,13.82-33.57,13.05-10.13-.58-20.33-.27-30.49-.07-11.63.23-21.43-3.8-30.37-11.13-6.75-5.52-14.35-10-21.34-15.24-7.82-5.85-14.47-12.38-13.56-23.55.55-6.79-.37-13.7.22-20.48.7-8-1.91-15.08-4.93-22a434.49,434.49,0,0,1-17.09-46.73,2,2,0,0,1-.11-1c2.62-10.44-5.6-15.56-10.94-22C214,289.53,210.35,280.1,208,269.66c-1.57-6.93-.11-13.29.47-19.8.44-4.82,2.42-9.57,4.18-14.17a17.71,17.71,0,0,0,.11-12.74,30.57,30.57,0,0,1-1.43-9.51c0-7.29-2.39-14.34-1.6-21.64.58-5.42-1.91-10.51-1.57-16.05.94-15.07,1.68-30.23,5.93-44.73,3.16-10.78,9-21.22,19.17-26.32,8.61-4.29,10-12.64,14.68-19,11.81-15.87,25.88-28.28,44.85-34.59,4.68-1.56,9.48-2.78,14.23-4.16Z" transform="translate(-28 -47)"/><path d="M774,304c-4.17,9.73-11.94,12.21-21.93,12.12-35.66-.31-71.32.11-107-.27-9.19-.1-15.48,5.16-22.42,9.34-10.84,6.54-21.33,13.66-32,20.46-18.24,11.61-36.4,23.36-54.84,34.65-7.79,4.77-14.89,10.79-23.62,13.92-10.43,3.74-21.47-3.93-22.32-14.82-1.52-19.5-.72-39-.78-58.53,0-4.13-1.21-5.19-5.06-4.94-4.65.3-9.33.08-14,.12-2.15,0-3.94-.49-2.93-3.12,3.35-8.79,5.05-18.08,8.17-26.89,1.12-3.18,3.38-6.38,9-5.77,5.89.63,12.17.18,18.23-.34,15.17-1.3,24.62,8.46,22.35,23.76-.69,4.71.2,9.12.18,13.66,0,7.17.32,14.34,0,21.49-.2,4.53,1.36,5,4.7,3q9.24-5.64,18.35-11.48c10.51-6.71,21-13.5,31.49-20.21q21.59-13.77,43.22-27.44a19.06,19.06,0,0,1,10.4-2.66q47,0,94,0a75.91,75.91,0,0,1,8.59.27c4,.47,3.24-1.67,3.24-3.77q0-85.74.12-171.48c0-4.31-1.28-5.11-5.3-5.1q-126.49.18-253,.11c-3.06,0-5.27-1.07-8-2.74-10.1-6.19-14.5-16.92-21.73-25.33a5.94,5.94,0,0,1-.85-1.22c-1-2-4.93-3-3.75-5.28,1.29-2.52,4.86-1.4,7.43-1.4q151.48-.09,303,0c8.17,0,13.54,4.87,17.09,11.93Z" transform="translate(-28 -47)"/><path d="M677.61,224c-13.45.45-23.7-10.17-23.6-23.67.1-14.68,11.09-24.12,23.69-24.21,13.56-.11,23.82,10.46,24.23,24C702.26,211.09,693.16,224.52,677.61,224Z" transform="translate(-28 -47)"/><path d="M498.86,200.43c1.15-14.47,10-24.08,24.15-24.19,13.34-.1,23.8,10,24,24.32.13,13.06-11,23.65-24.32,23.43C507.31,223.74,499.14,211.79,498.86,200.43Z" transform="translate(-28 -47)"/><path d="M624.15,200.59c.72,11.21-9.24,23.79-24.42,23.45-13.24-.31-23-10.62-23-24-.05-15,12.93-24.25,24.15-24C613.71,176.24,624.31,187.41,624.15,200.59Z" transform="translate(-28 -47)"/><path d="M334,487.94h32.46a16.13,16.13,0,0,1,3.48.18c2.71.58,5.28,1.88,6.14,4.54.74,2.26-1.53,3.92-3,5.11-4.59,3.61-8.57,7.84-12.8,11.81a6.66,6.66,0,0,1-5.05,1.59h-40c-1.65,0-3.33.1-4.74-1.08-5.73-4.79-11.42-9.63-17.24-14.31-3.61-2.91-1.52-5,1-6.44a14.35,14.35,0,0,1,7.25-1.48c10.82.08,21.64,0,32.46,0Z" transform="translate(-28 -47)"/></svg>