<svg id="Layer_1" data-name="Layer 1" xmlns="http://www.w3.org/2000/svg" viewBox="0 0 1125 1147"><title>Untitled-4</title><g id="ITA0rB.tif"><path d="M588,1034.29q112.17,0,224.34,0c21.16,0,37.65,12.25,43.15,31.66,5.82,20.51-1.76,41.33-19,52.2a43.05,43.05,0,0,1-23.4,6.47q-225.75,0-451.51-.06c-25.93,0-44-19.41-43.85-45.72.17-26,18.69-44.53,45-44.55Q475.41,1034.2,588,1034.29Z"/><path d="M587.69,23Q699.86,23,812,23c18.75,0,33.3,8,40.9,25.28s6.21,34.66-6.19,49.81c-9.22,11.26-21.75,15.33-36.12,15.32q-189.78-.15-379.56-.06-32.66,0-65.31,0c-29,0-47.76-17.39-48-44.43C317.5,40.88,336.31,23,366.2,23Q476.94,23,587.69,23Z"/><path d="M342,896.2c2.21-119.3,56.75-211.18,160-275.07,11.79-7.3,24.05-13.91,34.93-22.57,9.93-7.9,10.31-21.72-.13-29-17.58-12.22-36.21-22.94-53.83-35.1-68.48-47.26-114.53-110.32-132.64-192.22C334.29,270.19,342,199.93,368.7,131.45c1.63-4.18,3.85-5.92,8.37-5.54a72.34,72.34,0,0,0,14.19,0c9.23-1.08,8.41,2.41,5.63,9.26-35.77,87.94-39.22,176.09,1.42,263.37,26.31,56.48,70,97.21,123.13,128.51,11.41,6.73,22,14.79,33.23,21.74,20.82,12.88,21.77,55.94.41,70.35-16.48,11.12-33.53,21.29-50.12,32.21C435.57,697,390,759.17,374.65,841.71c-10.7,57.69-5.2,114.34,13.65,169.78,3.47,10.2,3.61,10.15-6.69,10.18-18.93.06-18.88.05-24.34-18.19a383.21,383.21,0,0,1-11.63-53.56C343.13,933,342.5,916,342,896.2Z"/><path d="M832.85,282.61c-1.55,101.37-50.61,191.58-146.91,256-14.14,9.47-28.49,18.7-43.27,27.11-15.66,8.9-15.49,27.74.46,36.89,16.4,9.4,32.41,19.57,48,30.28,69.08,47.51,115.57,110.94,133.76,193.55,14,63.76,8.8,126.65-10.79,188.61-1.35,4.28-3.06,6.64-8.41,6.74-22.19.41-21.93.73-15.77-20.18,23.28-79,22.68-156.94-13.34-232.44C750.94,715.47,710,675.59,659.7,644.78c-13.44-8.24-26.52-17-39.71-25.64-21.61-14.13-20.33-56.94.09-70.38,17.39-11.44,35.25-22.12,52.52-33.72,68.08-45.72,112.93-107.41,127.69-188.91,11.89-65.65,4-129.41-22-190.86-4-9.35-4.09-9.3,6.17-9.29,19.81,0,19.91,0,26.61,18.73C825.26,184.57,832.65,225.66,832.85,282.61Z"/><path d="M294.57,378.54c-.69,49.56-40.41,88.14-90.12,87.54-48.75-.58-88.06-40.76-87.44-89.38.63-49.4,40.7-88.79,89.75-88.22A88.62,88.62,0,0,1,294.57,378.54Z"/><path d="M976.29,413.27a61.51,61.51,0,1,1-123-1.42c.55-34,28.52-61.2,62.25-60.65A61.38,61.38,0,0,1,976.29,413.27Z"/><path d="M976.21,756a32.07,32.07,0,0,1-32.27-32.35,32.32,32.32,0,0,1,64.63.11A32,32,0,0,1,976.21,756Z"/></g><path d="M612.36,543.07c13.8-11.17,29.17-19.84,44.15-29.15,65.38-40.64,110.66-96.54,130.5-171.76.93-3.52,3.62-7.83.12-10.55-2.89-2.25-6.47,1-9.67,2.13-26.15,9.22-52.06,19.13-79.1,25.69a476.23,476.23,0,0,1-146.51,12.1c-54.35-3.84-106-18.89-156.41-38.64-2.56-1-5.49-3.31-7.91-1.16-2.76,2.43-.87,5.94-.1,8.9C403.89,404,438.81,455,490.59,494.84c21.06,16.21,44.7,28.38,66.32,43.7,16,11.34,24,26.16,23.46,45.78-.4,15.77-.44,31.54-.5,47.32-.22,54-.3,107.92-.62,161.88-.11,18.49-4,36.38-14.29,51.31h0L432.19,988.44c-9.23,7.73-16.91,18.24-25.52,27-1.52,1.55-3.68,3.2-2.68,5.62,1.11,2.68,3.89,1.33,5.89,1.34,24.54.08,49.08,0,73.62,0q55.71,0,111.43-.05c26.15,0,52.3-.3,78.46-.29,30.86,0,61.73.26,92.6.33,1.72,0,4.06.94,5-1.37,0-.11,0-.22.08-.33h.12l-.09-.09c.44-1.83-1-3.24-2.18-4.52-10.58-11.26-21.13-22.55-31.85-33.69a15.26,15.26,0,0,0-4.77-3.6L679.21,921.7a32.55,32.55,0,0,0-2.41-2.85q-5.24-5.45-10.41-11l-49.34-53.17c-13.58-16.7-20.92-36.14-21.17-57.91-.85-72.56-1-145.13-1.16-217.7C594.68,564.42,600.72,552.48,612.36,543.07Z"/></svg>