<svg fill="#D7E609" xmlns="http://www.w3.org/2000/svg" viewBox="0 0 512 512">
  <path d="M212.815 38.074h-31.52c-4.142 0-7.5 3.357-7.5 7.5s3.358 7.5 7.5 7.5h31.52c4.142 0 7.5-3.357 7.5-7.5s-3.357-7.5-7.5-7.5zM217.987 441.512h-41.864c-10.386 0-18.834 8.448-18.834 18.834v5.701c0 10.386 8.45 18.835 18.834 18.835h41.864c10.386 0 18.834-8.45 18.834-18.835v-5.701c0-10.386-8.449-18.834-18.834-18.834zm3.833 24.535c0 2.078-1.755 3.834-3.833 3.834h-41.864c-2.078 0-3.833-1.756-3.833-3.834v-5.701c0-2.078 1.755-3.833 3.833-3.833h41.864c2.078 0 3.833 1.755 3.833 3.833v5.701z"/>
  <path d="M456.85 251.556h-22.718c-1.387-4.401-3.152-8.666-5.281-12.756l16.062-16.062c2.008-2.008 3.114-4.678 3.114-7.518 0-2.839-1.106-5.509-3.113-7.515l-18.905-18.906c-4.143-4.139-10.884-4.137-15.029.002l-16.064 16.064c-4.09-2.129-8.354-3.894-12.756-5.28v-22.719c0-5.86-4.768-10.629-10.629-10.629h-21.942v-39.665c0-4.143-3.358-7.5-7.5-7.5s-7.919 3.357-7.919 7.5v73.013c-4.403 1.387-8.667 3.151-12.756 5.281l-4.211-4.212V88.847c0-7.521-6.119-13.644-13.645-13.644H90.555c-7.523 0-13.644 6.12-13.644 13.644v326.848c0 7.522 6.12 13.644 13.644 13.644h213.003c7.523 0 13.644-6.12 13.644-13.644v-65.247l4.211-4.211c4.09 2.131 8.354 3.896 12.756 5.282 0 24.107-.143 23.687.419 25.644v103.203c0 9.172-7.461 16.633-16.633 16.633H214.556c-4.142 0-7.5 3.357-7.5 7.5s3.358 7.5 7.5 7.5h103.398c17.443 0 31.634-14.191 31.634-31.634v-95.499h21.942c5.86 0 10.629-4.769 10.629-10.63v-22.718c4.402-1.387 8.666-3.151 12.756-5.281l16.064 16.064c4.144 4.143 10.888 4.143 15.031 0l18.902-18.902c2.008-2.008 3.114-4.677 3.114-7.517 0-2.84-1.106-5.509-3.113-7.516l-16.063-16.063c2.129-4.09 3.895-8.353 5.281-12.756h22.718c5.86 0 10.629-4.768 10.629-10.629v-26.734c.001-5.859-4.767-10.628-10.628-10.628zM135.79 90.206H302.2v32.561H135.79V90.206zm-43.88 0h28.878v32.561H91.91V90.206zm0 324.132v-276.57h210.289v48.859c-3.923-1.764-8.71-.996-11.882 2.174l-18.903 18.903c-4.19 4.191-4.113 10.922 0 15.033l16.063 16.063c-.774 1.486-1.482 3.002-2.159 4.533-1.186 2.681-2.239 5.42-3.122 8.222h-22.718c-5.86 0-10.629 4.767-10.629 10.629v5.866H122.3c-4.142 0-7.5 3.357-7.5 7.5s3.358 7.5 7.5 7.5h126.549v5.866c0 5.859 4.766 10.629 10.629 10.629h22.718c1.286 4.082 2.992 8.358 5.281 12.755l-16.063 16.064c-4.144 4.145-4.144 10.888 0 15.032l18.903 18.903c3.103 3.101 7.86 3.978 11.882 2.175v49.862H91.91zm360.569-129.792h-24.063c-3.484 0-6.509 2.399-7.303 5.791-1.6 6.836-4.284 13.32-7.979 19.271-1.838 2.96-1.396 6.796 1.068 9.261l17.013 17.013-12.72 12.721-17.014-17.014c-2.465-2.462-6.299-2.906-9.261-1.067-5.952 3.695-12.436 6.38-19.269 7.979-3.393.793-5.792 3.818-5.792 7.303v24.063H349.17v-24.063c0-3.484-2.399-6.51-5.792-7.303-6.834-1.599-13.318-4.283-19.269-7.979-2.959-1.838-6.796-1.396-9.261 1.068l-17.013 17.014-12.721-12.721 17.013-17.013c2.465-2.465 2.906-6.303 1.068-9.263-3.697-5.953-6.386-12.462-7.978-19.268-.793-3.393-3.819-5.792-7.303-5.792h-24.062v-17.989h24.062c3.484 0 6.509-2.399 7.303-5.792 1.535-6.559 4.222-13.221 7.978-19.269.689-1.11 1.058-2.343 1.12-3.581.103-2.063-.648-4.14-2.188-5.679l-11.342-11.343-5.67-5.671 12.72-12.721 17.013 17.014c2.463 2.464 6.3 2.907 9.261 1.068 5.95-3.695 12.433-6.379 19.269-7.979 3.393-.793 5.792-3.818 5.792-7.303v-24.063h17.989V205.3c0 3.484 2.399 6.509 5.792 7.303 6.835 1.599 13.319 4.283 19.27 7.979 2.959 1.837 6.796 1.395 9.26-1.068l17.014-17.014 12.721 12.721-17.013 17.014c-2.464 2.464-2.906 6.3-1.068 9.261 3.695 5.951 6.38 12.435 7.979 19.271.793 3.392 3.819 5.791 7.303 5.791h24.062v17.988z"/>
  <path d="M358.164 235.368c-22.157 0-40.184 18.026-40.184 40.184 0 22.158 18.026 40.184 40.184 40.184 22.157 0 40.183-18.026 40.183-40.184.001-22.158-18.026-40.184-40.183-40.184zm0 65.367c-13.886 0-25.184-11.298-25.184-25.184s11.297-25.184 25.184-25.184c13.886 0 25.182 11.298 25.182 25.184s-11.297 25.184-25.182 25.184zM256.349 186.545H122.3c-4.142 0-7.5 3.357-7.5 7.5s3.358 7.5 7.5 7.5h134.049c4.142 0 7.5-3.357 7.5-7.5.001-4.143-3.358-7.5-7.5-7.5zM256.349 227.299H122.3c-4.142 0-7.5 3.357-7.5 7.5s3.358 7.5 7.5 7.5h134.049c4.142 0 7.5-3.357 7.5-7.5.001-4.143-3.358-7.5-7.5-7.5zM256.349 308.804H122.3c-4.142 0-7.5 3.357-7.5 7.5s3.358 7.5 7.5 7.5h134.049c4.142 0 7.5-3.357 7.5-7.5s-3.358-7.5-7.5-7.5zM256.349 349.556H122.3c-4.142 0-7.5 3.357-7.5 7.5s3.358 7.5 7.5 7.5h134.049c4.142 0 7.5-3.357 7.5-7.5s-3.358-7.5-7.5-7.5z"/>
  <path d="M317.955 0H76.156C58.713 0 44.522 14.191 44.522 31.634v448.732c0 17.442 14.191 31.634 31.634 31.634h103.398c4.142 0 7.5-3.357 7.5-7.5s-3.358-7.5-7.501-7.5H76.156c-9.172 0-16.633-7.461-16.633-16.633V31.634c0-9.172 7.461-16.633 16.633-16.633h241.799c9.172 0 16.633 7.461 16.633 16.633V91.57c0 4.143 3.358 7.5 7.5 7.5s7.5-3.357 7.5-7.5V31.634C349.588 14.191 335.397 0 317.955 0z"/>
</svg>