<svg id="Layer_1" data-name="Layer 1" xmlns="http://www.w3.org/2000/svg" viewBox="0 0 163 100"><defs><style>.cls-1{fill:#dcd8d3;}.cls-2{fill:#d7e609;}.cls-3{fill:#667912;}</style></defs><title>logo pour site bmgraphic </title><path class="cls-1" d="M161,27.2c1.29-6.53-.94-15.58-1.34-14.93.17,3.12-.17,5.66-1,7.18a19.29,19.29,0,0,0,.29-4.35c-1.31,2.53-4.41,5.56-7.82,9.31a13.4,13.4,0,0,1-.15,3.49v0c0,.16-.07.32-.11.48l0,.15a3.38,3.38,0,0,1-.11.34.88.88,0,0,0,0,.15c-.06.14-.12.29-.19.42,0-.26.06-.53.08-.81a2.46,2.46,0,0,0,0-.28s0-.07,0-.11h0a17.46,17.46,0,0,0-.15-3.08l-.21.24a7,7,0,0,1-.63,2.31,13.24,13.24,0,0,0,.13-1.73,55.27,55.27,0,0,0-6.95,9.6c-1.65,2.19-.89,4.57-1,5.4a17.46,17.46,0,0,0-.59-2.21c-.07.16-.14.32-.2.48-6.11,14.59-.5,22.16,1.36,24.13a16,16,0,0,0,.42-2.82v-.35l0-1.06c0-.06,0-.13,0-.19,0-.34,0-.68.05-1,0-.12,0-.23,0-.35,0-.4.06-.8.1-1.2,0,0,0-.07,0-.1,0-.39.08-.79.13-1.2,0-.11,0-.23.05-.34,0-.44.12-.88.19-1.32a7.83,7.83,0,0,1,.2-1.3,6.71,6.71,0,0,0-2.41-3.5l0,0a5.77,5.77,0,0,1,2.48,3,50.12,50.12,0,0,1,1.5-5.76,9.28,9.28,0,0,0-2.4-6.75l0,0a7.81,7.81,0,0,1,2.62,5.94,52.61,52.61,0,0,1,6.22-12.42l0-.05,0,0a.21.21,0,0,1,0-.06l0,0,0-.05.08-.1s0,0,0,0l.1-.14,0,0,1.2-1.65.09-.13.15-.2.08-.11.16-.23.09-.12.15-.21.11-.15.14-.19.13-.18.12-.16.15-.21.07-.11c1.45-2,3-4.29,3.86-5.61.35-.63.51-.94.51-.94a6.38,6.38,0,0,1-.51.94c-.26.46-.62,1.1-1.11,1.9l-.31.51-.07.12-.9,1.42v0l-.5.77a.7.7,0,0,1-.06.09c-.37.57-.77,1.18-1.21,1.83l-.08.12-.58.86-.14.2c-.23.34-.46.69-.72,1.05a49,49,0,0,0-7.47,16.79,5,5,0,0,1,.38-.41l.13-.11.27-.26.19-.15c.09-.06.16-.13.24-.19l.24-.16.22-.14.27-.16.21-.11.3-.14.2-.09.32-.12.2-.07.34-.1.32-.09h.06l-.26.1h0l-.17.07-.32.13-.27.14-.3.15-.26.15-.28.18-.25.18-.26.19-.24.21-.24.2-.24.24-.21.21-.26.3-.15.18c-.13.17-.26.34-.38.52A51.23,51.23,0,0,0,144,59.72c1.77-4.53,5.41-11.09,9.06-17.42a11.1,11.1,0,0,0-2.24.77h0c-.18.08-.34.16-.5.25A8.91,8.91,0,0,1,153.2,42c1.59-2.76,3.18-5.46,4.61-7.92a15.54,15.54,0,0,0-3.73,1.13c.91-.86,5-2.24,5.68-4.52.29-.92.83-1.82,1.08-2.87a12.63,12.63,0,0,0-1.88.85,7.4,7.4,0,0,1,2-1.46"/><path class="cls-1" d="M60,72.94a40.7,40.7,0,0,0,5.36-1.66c-1.29-3.86-4.26-4.43-4.26-4.43C54.22,65,46.82,70.94,46.82,70.94c8.26-2.85,11.78-.84,13.18,2"/><path class="cls-1" d="M6.94,86.7l.17.11L7,86.71h0"/><path class="cls-1" d="M8.92,87.77a14.89,14.89,0,0,1-1.81-1,14.18,14.18,0,0,0,1.81,1"/><path class="cls-1" d="M7,87.3l.15.11a14.31,14.31,0,0,0,1.82,1q.5.22,1.11.45a15.86,15.86,0,0,0,2,.61,20,20,0,0,0,4.35.46,25.85,25.85,0,0,0,6.17-.76,35.67,35.67,0,0,0,5.1-1.53V83.68S14.11,91.08,7,87.3"/><path class="cls-1" d="M141.62,64.65a15.71,15.71,0,0,0-4.46.62c5-.29,11.49,3.85,11.49,3.85v-2.8A16.36,16.36,0,0,0,145.12,65a16,16,0,0,0-3.5-.39"/><path class="cls-1" d="M97.51,45.19c0-.09,0-.19,0-.28a22.72,22.72,0,0,1-1.15,6.26A16.08,16.08,0,0,0,97.51,45.19Z"/><path class="cls-2" d="M27.65,72.52h-13V78H20.4V83.8c-.26,0-.58,0-.94.06l-.95,0a10.1,10.1,0,0,1-7.16-2.45c-1.75-1.63-2.62-4.17-2.62-7.6a11.87,11.87,0,0,1,.69-4.23,8.38,8.38,0,0,1,1.87-3,8.09,8.09,0,0,1,2.82-1.82,10.06,10.06,0,0,1,3.51-.59,10.58,10.58,0,0,1,3.11.45,13.82,13.82,0,0,1,2.59,1.09,18.08,18.08,0,0,1,2,1.3l1.54,1.17h.68V61.31a32.3,32.3,0,0,0-4.84-1.91,22,22,0,0,0-6.08-.7c-4.84,0-8.64,1.39-11.43,4.17S1,69.33,1,74q0,7.33,4.17,11.34A15.28,15.28,0,0,0,7,86.71c7.15,3.77,20.68-3.62,20.68-3.62"/><path class="cls-2" d="M43.71,65.75a6,6,0,0,0-1.8.3,8,8,0,0,0-1.66.74,12.62,12.62,0,0,0-1.46,1c-.54.42-1,.76-1.26,1V67.29l-6.6-1.47V86.7h6.6v-14c3.42-5.92,7.61-2.29,7.61-2.29V65.82l-.71-.06h-.72"/><path class="cls-2" d="M83.82,65.24a7.6,7.6,0,0,0-3.49.77,15.6,15.6,0,0,0-3,2V65.82H70.78V99.53l6.59-13.87a12.62,12.62,0,0,0,2.48,1.09,9.5,9.5,0,0,0,2.76.35A7.92,7.92,0,0,0,89,84,12.11,12.11,0,0,0,91.52,76a13.48,13.48,0,0,0-2-7.84,6.54,6.54,0,0,0-5.69-2.89m-.21,15.54A4.2,4.2,0,0,1,80,82.33a9.32,9.32,0,0,1-1.5-.1,4.31,4.31,0,0,1-1.16-.31V71.42a6.89,6.89,0,0,1,1.73-.84,5.63,5.63,0,0,1,1.76-.28,3.37,3.37,0,0,1,3,1.38,8,8,0,0,1,1,4.43,7.75,7.75,0,0,1-1.17,4.67"/><path class="cls-2" d="M137.16,65.86a10.49,10.49,0,0,0-3.71,1.93,9.57,9.57,0,0,0-2.61,3.46,13.86,13.86,0,0,0-.08,9.93,9.27,9.27,0,0,0,2.47,3.42,10.38,10.38,0,0,0,3.78,2,16.47,16.47,0,0,0,4.79.65,14.5,14.5,0,0,0,2.22-.13c.56-.1,1.16-.23,1.8-.41a10.49,10.49,0,0,0,1.52-.52l1.31-.55V80.06h-.85c-.22.22-.5.47-.81.75a7.32,7.32,0,0,1-4.94,1.76A5.2,5.2,0,0,1,138.12,81a6.6,6.6,0,0,1-1.48-4.69A7.24,7.24,0,0,1,138,71.67a4.71,4.71,0,0,1,3.91-1.74,7.1,7.1,0,0,1,2,.27,8.84,8.84,0,0,1,1.62.66,8.43,8.43,0,0,1,1.25.82,11.41,11.41,0,0,1,1,.82h.85V69.72s-6.52-4.15-11.49-3.86"/><path class="cls-2" d="M80.62,61.43a21.87,21.87,0,0,0,7-3.36c.25-.19.53-.35.78-.55a16.65,16.65,0,0,0,4.77-5.79,17.55,17.55,0,0,0,1.77-8.11q0-6.33-3.5-10a15.29,15.29,0,0,0-3.82-2.93,19.29,19.29,0,0,0-5.5-2s4.06-2.64,5.5-4.43c.29-.37.59-.72.85-1.12A14.46,14.46,0,0,0,90.77,15a14.55,14.55,0,0,0-1-5.55,13,13,0,0,0-.64-1.36,12,12,0,0,0-5-4.79,20.65,20.65,0,0,0-6.68-2.18A77.94,77.94,0,0,0,66.88.62H44.68v62H69.83a41.09,41.09,0,0,0,10.79-1.17M60.38,12h1.1q4.22,0,6.35.07a10.06,10.06,0,0,1,3.7.73A4.65,4.65,0,0,1,74,15.06a6.92,6.92,0,0,1,.78,3.08A8.43,8.43,0,0,1,74,21.73a5.08,5.08,0,0,1-2.61,2.41A9.3,9.3,0,0,1,68,25c-1.08.06-3,.08-5.67.08h-2Zm.85,39.25h-.85V35.71h2.91c2.81,0,5.06,0,6.73.06a12.71,12.71,0,0,1,4,.6,7.2,7.2,0,0,1,3.54,2.46,7.5,7.5,0,0,1,1.19,4.5,8,8,0,0,1-1,4A6.23,6.23,0,0,1,74.56,50a13.39,13.39,0,0,1-4.81,1.12c-1.57.06-4.42.08-8.52.08"/><path class="cls-2" d="M60.52,74.38C54.77,75.87,48.89,76.75,47.34,81c-2.25,6.22,4.41,8,10.85,6.61a18,18,0,0,1,8.59,0s-2.59-2-1.46-7.27a23.59,23.59,0,0,0,.59-4.39,19,19,0,0,1-5.22,2.77l-.06.37a13.54,13.54,0,0,0-.26,4.72c-3.18,1.59-5.45,0-5.85-1.09s-.8-3.67,6.25-5.95l.06,0a20.73,20.73,0,0,0,5.07-2.4,10.81,10.81,0,0,0,4.18-4.45,13.85,13.85,0,0,1-4.37,2.81,34.6,34.6,0,0,1-5.19,1.68"/><polygon class="cls-2" points="120.59 86.66 127.19 86.66 127.19 68.18 120.59 65.78 120.59 86.66"/><path class="cls-2" d="M147.86,9.47H128.41L116.51,35.7,104.57,9.47h-12A19.39,19.39,0,0,1,93.35,15a18.81,18.81,0,0,1-3,10.42,14.87,14.87,0,0,1-.92,1.24l-.18.23-.4.47a19.25,19.25,0,0,1,4,3.23c3.1,3.3,4.67,7.67,4.67,13q0,.65,0,1.29c0,.09,0,.19,0,.28a16.08,16.08,0,0,1-1.16,6,19.41,19.41,0,0,1-1.06,2.52,21,21,0,0,1-6,7.24l-.67.49a1.37,1.37,0,0,0-.2.13l0,0q-.76.54-1.56,1h8.22V86.7h6.59V71.9a8,8,0,0,1,1.78-1,4.76,4.76,0,0,1,1.63-.29,4.08,4.08,0,0,1,1.72.3,2.05,2.05,0,0,1,1,1,5.69,5.69,0,0,1,.39,1.86c.07.83.1,1.67.1,2.51V86.7h6.63V73.11a8.84,8.84,0,0,0-1.71-5.85,6.18,6.18,0,0,0-5-2,7.65,7.65,0,0,0-3.4.76,16.71,16.71,0,0,0-3.16,2.13V62.6h.06V27.39l9.8,22.72h9.22l9.8-22.72-4.36,30.87Z"/><path class="cls-2" d="M78,98.64a2.32,2.32,0,0,1,1.6-4,2.44,2.44,0,0,1,1.56.51.16.16,0,0,1,.08.14.21.21,0,0,1-.05.17.22.22,0,0,1-.32,0,1.91,1.91,0,0,0-1.25-.42,1.83,1.83,0,0,0-1.3.55A1.79,1.79,0,0,0,77.77,97a1.74,1.74,0,0,0,.57,1.31,1.76,1.76,0,0,0,1.29.55,2,2,0,0,0,1.26-.41.22.22,0,0,1,.32,0c.1.11.08.22,0,.32A2.43,2.43,0,0,1,78,98.64Z"/><path class="cls-3" d="M83.48,98.63a2.37,2.37,0,0,1,0-3.26A2,2,0,0,1,85,94.68a2.05,2.05,0,0,1,1.55.69,2.4,2.4,0,0,1,0,3.26,2.08,2.08,0,0,1-1.55.68A2,2,0,0,1,83.48,98.63ZM85,95.12a1.64,1.64,0,0,0-1.23.55,2,2,0,0,0,0,2.64,1.64,1.64,0,0,0,2.45,0,1.94,1.94,0,0,0,0-2.64A1.64,1.64,0,0,0,85,95.12Z"/><path class="cls-3" d="M89.2,99.31h0a.21.21,0,0,1-.19-.17V94.91a.21.21,0,0,1,.06-.16.24.24,0,0,1,.32,0,.21.21,0,0,1,.06.16v.44a1.79,1.79,0,0,1,1.43-.66,1.82,1.82,0,0,1,1,.27,1.93,1.93,0,0,1,.68.71,2.16,2.16,0,0,1,.7-.71,1.84,1.84,0,0,1,1-.27A1.88,1.88,0,0,1,96,96.57v2.52a.22.22,0,0,1-.23.22.2.2,0,0,1-.15-.06.25.25,0,0,1-.06-.16V96.57a1.49,1.49,0,0,0-.44-1,1.36,1.36,0,0,0-1-.42,1.45,1.45,0,0,0-1.43,1.44v2.59a.16.16,0,0,1-.09.11.27.27,0,0,1-.14,0h0l-.08,0,0,0s0,0,0,0v0s0,0,0,0V96.57a1.39,1.39,0,0,0-.42-1,1.42,1.42,0,0,0-2,0,1.39,1.39,0,0,0-.42,1v2.52a.17.17,0,0,1-.1.18A.13.13,0,0,1,89.2,99.31Z"/><path class="cls-3" d="M98.2,99.31h-.06a.21.21,0,0,1-.19-.17V94.91a.19.19,0,0,1,.07-.16.2.2,0,0,1,.15-.06.25.25,0,0,1,.16.06.21.21,0,0,1,.06.16v.44a1.88,1.88,0,0,1,2.4-.39,2,2,0,0,1,.69.71,2,2,0,0,1,.7-.71,1.78,1.78,0,0,1,1-.27A1.88,1.88,0,0,1,105,96.57v2.52a.22.22,0,0,1-.23.22.2.2,0,0,1-.15-.06.25.25,0,0,1-.06-.16V96.57a1.49,1.49,0,0,0-.44-1,1.36,1.36,0,0,0-1-.42,1.45,1.45,0,0,0-1.43,1.44v2.59a.16.16,0,0,1-.09.11.27.27,0,0,1-.13,0h0l-.08,0,0,0,0,0v0s0,0,0,0V96.57a1.39,1.39,0,0,0-.42-1,1.35,1.35,0,0,0-1-.42,1.37,1.37,0,0,0-1,.42,1.39,1.39,0,0,0-.42,1v2.52a.17.17,0,0,1-.1.18A.12.12,0,0,1,98.2,99.31Z"/><path class="cls-3" d="M106.85,97.42V94.9a.22.22,0,0,1,.22-.23.24.24,0,0,1,.23.23v2.52a1.35,1.35,0,0,0,.42,1,1.39,1.39,0,0,0,1,.43,1.43,1.43,0,0,0,1-.43,1.35,1.35,0,0,0,.42-1V94.9a.19.19,0,0,1,.08-.16.22.22,0,0,1,.32,0,.19.19,0,0,1,.07.16v2.52a1.84,1.84,0,0,1-.56,1.34,1.79,1.79,0,0,1-1.33.55,1.81,1.81,0,0,1-1.34-.55A1.86,1.86,0,0,1,106.85,97.42Z"/><path class="cls-3" d="M113.18,99.12a.21.21,0,0,1-.22.19h0a.28.28,0,0,1-.16-.12s0,0,0,0V94.92a.22.22,0,0,1,.22-.23.2.2,0,0,1,.16.07.21.21,0,0,1,.06.16v.44a1.71,1.71,0,0,1,1.38-.67,1.84,1.84,0,0,1,1.38.55,1.81,1.81,0,0,1,.56,1.33v2.52a.21.21,0,0,1-.07.16.24.24,0,0,1-.32,0,.26.26,0,0,1-.07-.16V96.57a1.42,1.42,0,0,0-2.43-1,1.46,1.46,0,0,0-.43,1Z"/><path class="cls-3" d="M118.54,93.61v-.22a.22.22,0,0,1,.23-.22.25.25,0,0,1,.16.06.21.21,0,0,1,.07.16v.22a.24.24,0,0,1-.07.18.26.26,0,0,1-.16.07.22.22,0,0,1-.16-.07A.24.24,0,0,1,118.54,93.61Zm0,5.48V94.91a.19.19,0,0,1,.07-.16.2.2,0,0,1,.16-.07.22.22,0,0,1,.17.07.21.21,0,0,1,.06.16v4.18a.21.21,0,0,1-.07.16.25.25,0,0,1-.16.06.22.22,0,0,1-.23-.22Z"/><path class="cls-3" d="M121.55,98.64a2.32,2.32,0,0,1,1.61-4,2.41,2.41,0,0,1,1.55.51.19.19,0,0,1,.09.14.21.21,0,0,1-.06.17.21.21,0,0,1-.31,0,2,2,0,0,0-1.26-.42,1.84,1.84,0,0,0-1.3.55,1.81,1.81,0,0,0-.56,1.33,1.77,1.77,0,0,0,.56,1.31,1.8,1.8,0,0,0,1.3.55,2,2,0,0,0,1.26-.41.22.22,0,0,1,.32,0c.09.11.08.22-.06.32a2.27,2.27,0,0,1-1.45.49A2.33,2.33,0,0,1,121.55,98.64Z"/><path class="cls-3" d="M130.08,94.75a.21.21,0,0,1,.16-.07.24.24,0,0,1,.23.23v4.18a.22.22,0,0,1-.23.22.21.21,0,0,1-.22-.22V98.4a2.33,2.33,0,0,1-.76.67,2.12,2.12,0,0,1-1,.24,2,2,0,0,1-1.55-.68,2.38,2.38,0,0,1,0-3.27,2.06,2.06,0,0,1,1.55-.68,2,2,0,0,1,1,.25,2.19,2.19,0,0,1,.76.66v-.68A.21.21,0,0,1,130.08,94.75ZM126.54,97a1.84,1.84,0,0,0,.51,1.31,1.64,1.64,0,0,0,1.23.55,1.61,1.61,0,0,0,1.23-.55A1.84,1.84,0,0,0,130,97a1.89,1.89,0,0,0-.51-1.33,1.64,1.64,0,0,0-1.23-.55,1.67,1.67,0,0,0-1.23.55A1.89,1.89,0,0,0,126.54,97Z"/><path class="cls-3" d="M133.83,94.68a.19.19,0,0,1,.15.07.21.21,0,0,1,.07.16.24.24,0,0,1-.22.22h-.6v3.38a.29.29,0,0,0,.12.24.33.33,0,0,0,.21.1.23.23,0,0,1,.17.07.27.27,0,0,1,.08.17.22.22,0,0,1-.08.15.21.21,0,0,1-.16.07.79.79,0,0,1-.58-.22.82.82,0,0,1-.23-.58V95.13h-.58a.27.27,0,0,1-.19,0,.33.33,0,0,1,0-.15c0-.07,0-.11,0-.14s.1-.11.22-.11h.58V93a.21.21,0,0,1,.07-.16.26.26,0,0,1,.16-.07.31.31,0,0,1,.17.07.21.21,0,0,1,.07.16v1.72Z"/><path class="cls-3" d="M136.23,93.61v-.22a.21.21,0,0,1,.22-.22.25.25,0,0,1,.17.06.21.21,0,0,1,.07.16v.22a.24.24,0,0,1-.07.18.26.26,0,0,1-.17.07.26.26,0,0,1-.16-.07A.28.28,0,0,1,136.23,93.61Zm0,5.48V94.91a.21.21,0,0,1,.06-.16.22.22,0,0,1,.17-.07.24.24,0,0,1,.23.23v4.18a.21.21,0,0,1-.07.16.25.25,0,0,1-.17.06.21.21,0,0,1-.22-.22Z"/><path class="cls-3" d="M139.3,98.63a2.4,2.4,0,0,1,0-3.26,2.09,2.09,0,0,1,3.1,0,2.4,2.4,0,0,1,0,3.26,2.11,2.11,0,0,1-3.1,0Zm1.55-3.51a1.64,1.64,0,0,0-1.22.55,1.94,1.94,0,0,0,0,2.64,1.6,1.6,0,0,0,1.22.55,1.64,1.64,0,0,0,1.23-.55,2,2,0,0,0,0-2.64A1.67,1.67,0,0,0,140.85,95.12Z"/><path class="cls-3" d="M145.23,99.12a.21.21,0,0,1-.22.19H145a.23.23,0,0,1-.15-.12s0,0,0,0V94.92a.22.22,0,0,1,.07-.16.22.22,0,0,1,.32,0,.21.21,0,0,1,.06.16v.44a1.71,1.71,0,0,1,1.38-.67,1.87,1.87,0,0,1,1.38.55,1.81,1.81,0,0,1,.56,1.33v2.52a.26.26,0,0,1-.07.16.24.24,0,0,1-.32,0,.21.21,0,0,1-.07-.16V96.57a1.41,1.41,0,0,0-.41-1,1.42,1.42,0,0,0-2,0,1.46,1.46,0,0,0-.43,1Z"/></svg>